<?xml version="1.0" encoding="UTF-8" standalone="no"?>
<svg
   xmlns:dc="http://purl.org/dc/elements/1.1/"
   xmlns:cc="http://creativecommons.org/ns#"
   xmlns:rdf="http://www.w3.org/1999/02/22-rdf-syntax-ns#"
   xmlns:svg="http://www.w3.org/2000/svg"
   xmlns="http://www.w3.org/2000/svg"
   xmlns:sodipodi="http://sodipodi.sourceforge.net/DTD/sodipodi-0.dtd"
   xmlns:inkscape="http://www.inkscape.org/namespaces/inkscape"
   width="22"
   viewBox="0 0 22 22"
   height="22"
   style="enable-background:new"
   id="svg2"
   version="1.1"
   inkscape:version="0.91 r13725"
   sodipodi:docname="widget-control-wireless.svg">
  <metadata
     id="metadata10">
    <rdf:RDF>
      <cc:Work
         rdf:about="">
        <dc:format>image/svg+xml</dc:format>
        <dc:type
           rdf:resource="http://purl.org/dc/dcmitype/StillImage" />
        <dc:title />
      </cc:Work>
    </rdf:RDF>
  </metadata>
  <sodipodi:namedview
     pagecolor="#ffffff"
     bordercolor="#666666"
     borderopacity="1"
     objecttolerance="10"
     gridtolerance="10000"
     guidetolerance="10"
     inkscape:pageopacity="0"
     inkscape:pageshadow="2"
     inkscape:window-width="2560"
     inkscape:window-height="1015"
     id="namedview8"
     showgrid="true"
     inkscape:showpageshadow="false"
     borderlayer="true"
     inkscape:zoom="29.5"
     inkscape:cx="3.9137078"
     inkscape:cy="11.193536"
     inkscape:window-x="0"
     inkscape:window-y="0"
     inkscape:window-maximized="1"
     inkscape:current-layer="svg2"
     fit-margin-top="0"
     fit-margin-left="0"
     fit-margin-right="0"
     fit-margin-bottom="0">
    <inkscape:grid
       type="xygrid"
       id="grid4139"
       originx="3"
       originy="3" />
    <sodipodi:guide
       position="0,22"
       orientation="22,0"
       id="guide4153" />
    <sodipodi:guide
       position="0,0"
       orientation="0,22"
       id="guide4155" />
    <sodipodi:guide
       position="22,0"
       orientation="-22,0"
       id="guide4157" />
    <sodipodi:guide
       position="22,22"
       orientation="0,-22"
       id="guide4159" />
    <sodipodi:guide
       position="3,19"
       orientation="16,0"
       id="guide4161" />
    <sodipodi:guide
       position="3,3"
       orientation="0,16"
       id="guide4163" />
    <sodipodi:guide
       position="19,3"
       orientation="-16,0"
       id="guide4165" />
    <sodipodi:guide
       position="19,19"
       orientation="0,-16"
       id="guide4167" />
  </sodipodi:namedview>
  <defs
     id="defs4157">
    <!--Add ColorScheme-Text property-->
    <style
       type="text/css"
       id="current-color-scheme">
            .ColorScheme-Text {
            color:#4d4d4d;
            }
        </style>
  </defs>
  <g
     id="network-wireless-on"
     transform="translate(22,-22)">
    <rect
       y="22"
       x="-22"
       height="22"
       width="22"
       id="rect4470"
       style="opacity:0.2;fill:none;fill-opacity:1;stroke:none;stroke-width:3.56737041px;stroke-linecap:butt;stroke-linejoin:miter;stroke-miterlimit:4;stroke-dasharray:none;stroke-dashoffset:0;stroke-opacity:1" />
    <path
       class="ColorScheme-Text"
       style="color:#4d4d4d;opacity:1;fill:currentColor;fill-opacity:1;stroke:none"
       d="m -11,25 c -4.155,0 -7.90594,1.67156 -10.61719,4.38281 l 0.70899,0.70899 C -18.3777,27.5613 -14.878,26 -11,26 c 3.878,0 7.3777,1.5613 9.9082,4.0918 l 0.70899,-0.70899 C -3.09406,26.67156 -6.845,25 -11,25 Z"
       id="path4475"
       inkscape:connector-curvature="0" />
    <path
       class="ColorScheme-Text"
       style="color:#4d4d4d;opacity:1;fill:currentColor;fill-opacity:1;stroke:none"
       d="m -11,29 c -3.047,0 -5.79691,1.22659 -7.78516,3.21484 l 0.70704,0.70704 C -16.27062,31.11437 -13.77,30 -11,30 c 2.77,0 5.27062,1.11437 7.07813,2.92188 l 0.70703,-0.70704 C -5.20309,30.22659 -7.953,29 -11,29 Z"
       id="path4477"
       inkscape:connector-curvature="0" />
    <path
       class="ColorScheme-Text"
       style="color:#4d4d4d;opacity:1;fill:currentColor;fill-opacity:1;stroke:none"
       d="m -11,33 c -1.939,0 -3.68983,0.77967 -4.95508,2.04492 l 0.70899,0.70899 C -14.16159,34.66941 -12.662,34 -11,34 c 1.662,0 3.16159,0.66941 4.24609,1.75391 l 0.70899,-0.70899 C -7.31017,33.77967 -9.061,33 -11,33 Z"
       id="path4479"
       inkscape:connector-curvature="0" />
    <path
       class="ColorScheme-Text"
       inkscape:connector-curvature="0"
       style="color:#4d4d4d;opacity:1;fill:currentColor;fill-opacity:1;stroke:none"
       d="m -11,37 c -1.107996,0 -2,0.892004 -2,2 0,1.107996 0.892004,2 2,2 1.107996,0 2,-0.892004 2,-2 0,-1.107996 -0.892004,-2 -2,-2 z m 0,1 c 0.554,0 1,0.446 1,1 0,0.554 -0.446,1 -1,1 -0.554,0 -1,-0.446 -1,-1 0,-0.554 0.446,-1 1,-1 z"
       id="path4481" />
  </g>
</svg>
