<?xml version="1.0" encoding="UTF-8" standalone="no"?>
<svg
   xmlns:dc="http://purl.org/dc/elements/1.1/"
   xmlns:cc="http://creativecommons.org/ns#"
   xmlns:rdf="http://www.w3.org/1999/02/22-rdf-syntax-ns#"
   xmlns:svg="http://www.w3.org/2000/svg"
   xmlns="http://www.w3.org/2000/svg"
   xmlns:sodipodi="http://sodipodi.sourceforge.net/DTD/sodipodi-0.dtd"
   xmlns:inkscape="http://www.inkscape.org/namespaces/inkscape"
   width="22"
   viewBox="0 0 22 22"
   height="22"
   style="enable-background:new"
   id="svg2"
   version="1.1"
   inkscape:version="0.91 r13725"
   sodipodi:docname="widget-control-airplane-mode.svg">
  <metadata
     id="metadata10">
    <rdf:RDF>
      <cc:Work
         rdf:about="">
        <dc:format>image/svg+xml</dc:format>
        <dc:type
           rdf:resource="http://purl.org/dc/dcmitype/StillImage" />
        <dc:title />
      </cc:Work>
    </rdf:RDF>
  </metadata>
  <sodipodi:namedview
     pagecolor="#ffffff"
     bordercolor="#666666"
     borderopacity="1"
     objecttolerance="10"
     gridtolerance="10000"
     guidetolerance="10"
     inkscape:pageopacity="0"
     inkscape:pageshadow="2"
     inkscape:window-width="2560"
     inkscape:window-height="1015"
     id="namedview8"
     showgrid="true"
     inkscape:showpageshadow="false"
     borderlayer="true"
     inkscape:zoom="29.5"
     inkscape:cx="3.9137078"
     inkscape:cy="11.193536"
     inkscape:window-x="0"
     inkscape:window-y="0"
     inkscape:window-maximized="1"
     inkscape:current-layer="svg2"
     fit-margin-top="0"
     fit-margin-left="0"
     fit-margin-right="0"
     fit-margin-bottom="0">
    <inkscape:grid
       type="xygrid"
       id="grid4139"
       originx="3"
       originy="3" />
    <sodipodi:guide
       position="0,22"
       orientation="22,0"
       id="guide4153" />
    <sodipodi:guide
       position="0,0"
       orientation="0,22"
       id="guide4155" />
    <sodipodi:guide
       position="22,0"
       orientation="-22,0"
       id="guide4157" />
    <sodipodi:guide
       position="22,22"
       orientation="0,-22"
       id="guide4159" />
    <sodipodi:guide
       position="3,19"
       orientation="16,0"
       id="guide4161" />
    <sodipodi:guide
       position="3,3"
       orientation="0,16"
       id="guide4163" />
    <sodipodi:guide
       position="19,3"
       orientation="-16,0"
       id="guide4165" />
    <sodipodi:guide
       position="19,19"
       orientation="0,-16"
       id="guide4167" />
  </sodipodi:namedview>
  <defs
     id="defs4157">
    <!--Add ColorScheme-Text property-->
    <style
       type="text/css"
       id="current-color-scheme">
            .ColorScheme-Text {
            color:#4d4d4d;
            }
        </style>
  </defs>
  <path
     inkscape:connector-curvature="0"
     id="rect4587"
     d="m 8.0996876,3 0.029,0.101562 L 10.114788,10 l -3.1150004,0 -1.9999,-2 -0.7969,0 -0.6172,0 -0.5858,0 0.1387,0.208984 1.869,2.791016 -1.869,2.791016 -0.1387,0.208984 0.5858,0 0.6172,0 0.7969,0 1.9999,-2 3.1150004,0 -1.9861004,6.898438 -0.029,0.101562 0.9003,0 0.1407,0 0.8593,0 0.1000004,0 3.9997,-7 0.9005,0 c 0.9999,0 3.9898,-2.3e-5 3.9998,-1 0.01,-1 -2.9999,-1 -3.9998,-1 l -0.9005,0 -3.9997,-7 -0.1000004,0 -0.8593,0 -0.1407,0 -0.9003,0 z m 1.328,1 0.094,0 3.4335004,6 -1.7989,0 L 9.4278876,4 Z M 5.4552876,9.869141 6.5860876,11 5.4552876,12.130859 6.2130876,11 5.4552876,9.869141 Z M 11.156088,12 l 1.7989,0 -3.4335004,6 -0.094,0 1.7284004,-6 z"
     style="fill:currentColor;fill-opacity:1;stroke:none" class="ColorScheme-Text" />
</svg>
